<?xml version="1.0" standalone="no"?>
<!DOCTYPE svg PUBLIC "-//W3C//DTD SVG 20010904//EN"
 "http://www.w3.org/TR/2001/REC-SVG-20010904/DTD/svg10.dtd">
<svg version="1.0" xmlns="http://www.w3.org/2000/svg"
 width="174.000000pt" height="220.000000pt" viewBox="0 0 174.000000 220.000000"
 preserveAspectRatio="xMidYMid meet">

<g transform="translate(0.000000,220.000000) scale(0.100000,-0.100000)"
fill="#000000" stroke="none">
<path d="M1150 2073 c-14 -10 -58 -29 -99 -44 -87 -31 -111 -61 -111 -142 0
-40 5 -54 29 -78 42 -42 94 -41 116 2 15 28 15 33 0 55 -16 25 -49 32 -60 14
-4 -6 -1 -18 6 -26 18 -21 -4 -42 -26 -24 -37 30 0 94 48 82 56 -13 76 -80 41
-131 -15 -20 -23 -23 -66 -19 -75 8 -103 40 -103 121 0 34 4 72 8 85 8 22 7
22 -75 22 l-83 -1 28 -20 c15 -11 27 -25 27 -29 0 -5 -12 -2 -27 6 -29 14 -85
19 -96 7 -4 -3 2 -12 13 -20 30 -21 24 -34 -7 -17 -30 15 -61 18 -87 8 -13 -5
-12 -9 7 -26 20 -18 21 -19 2 -14 -60 15 -82 14 -123 -5 -78 -38 -115 -115
-74 -152 24 -22 36 -21 102 4 73 28 189 49 253 47 l52 -2 -49 -3 c-40 -3 -58
-11 -88 -39 -41 -36 -89 -45 -142 -24 -20 7 -35 5 -61 -7 -33 -16 -37 -16 -64
0 -28 16 -31 16 -72 -3 -24 -11 -64 -20 -89 -20 -100 0 -170 -41 -170 -99 0
-33 33 -76 67 -86 25 -7 68 27 78 64 7 22 5 23 -27 16 -18 -4 -39 -12 -46 -17
-8 -7 -12 -7 -12 0 0 12 23 22 73 32 42 8 43 6 23 -42 -18 -42 -31 -54 -81
-70 -27 -9 -45 -24 -59 -48 l-20 -35 25 23 c14 12 28 22 31 22 15 0 12 -36 -4
-52 -10 -10 -18 -28 -18 -40 1 -19 3 -18 15 10 15 35 26 40 45 17 8 -10 10
-30 6 -59 -4 -27 -3 -47 4 -51 6 -4 10 5 10 22 0 41 10 48 60 48 35 0 49 -5
63 -23 18 -22 86 -62 106 -62 5 0 -1 19 -14 43 -35 61 -33 73 21 91 45 15 47
15 74 -7 14 -12 35 -33 45 -46 16 -22 17 -27 4 -50 -11 -20 -26 -28 -64 -34
-91 -15 -110 -13 -174 26 -68 40 -77 33 -35 -29 16 -23 22 -40 15 -42 -16 -5
-14 -42 3 -42 8 0 18 -18 25 -43 12 -52 42 -92 82 -112 26 -14 43 -5 19 10 -5
3 -10 11 -10 16 0 6 12 1 26 -10 34 -26 48 -27 41 -1 -5 18 -4 19 16 5 33 -23
50 -20 37 6 -14 26 -8 34 18 20 18 -9 19 -7 18 29 -1 44 36 98 95 138 46 32
104 27 132 -10 19 -26 20 -30 6 -75 -15 -47 -16 -48 -74 -64 -75 -19 -108 -37
-164 -88 -35 -32 -53 -41 -97 -47 -55 -6 -106 -3 -137 11 -16 7 -17 4 -12 -21
4 -16 16 -42 28 -58 15 -22 17 -31 8 -34 -26 -9 -83 -66 -102 -103 -20 -39
-24 -83 -13 -138 8 -39 20 -40 27 -2 3 16 18 42 32 57 l25 29 -6 -30 c-4 -16
-11 -39 -17 -49 -15 -31 -21 -186 -8 -233 7 -24 22 -55 35 -69 l22 -27 -4 59
c-4 61 19 174 25 124 18 -131 80 -247 155 -286 40 -21 41 -19 13 37 -28 55
-46 99 -41 99 2 0 19 -24 39 -54 71 -107 146 -174 93 -83 -38 64 -59 167 -54
267 5 93 24 142 84 216 38 47 187 151 246 171 64 22 218 43 314 43 55 0 108 6
135 15 52 18 112 72 140 127 19 38 13 52 -11 23 -7 -8 -17 -15 -22 -15 -5 0 5
18 22 39 25 31 33 51 37 100 7 70 -5 79 -30 22 -10 -21 -36 -59 -60 -84 -50
-53 -109 -71 -195 -57 -57 10 -142 46 -142 61 0 5 36 9 79 9 146 0 274 59 311
143 23 52 38 163 18 133 -7 -11 -25 -33 -41 -50 l-27 -31 27 55 c37 72 38 161
2 237 -27 59 -43 70 -28 21 14 -49 11 -155 -5 -186 -22 -41 -96 -109 -138
-127 -21 -8 -59 -15 -85 -15 l-48 0 29 15 c52 28 126 88 150 125 53 77 79 232
48 285 -11 18 -11 18 -12 -10 -1 -16 -5 -39 -10 -50 -6 -14 -9 -3 -10 40 0 37
-8 77 -20 104 -24 52 -36 49 -21 -6 14 -48 14 -88 0 -136 -10 -38 -62 -107
-73 -97 -3 3 2 28 10 55 22 71 14 157 -22 230 l-29 58 -8 -34 c-20 -82 -33
-114 -60 -151 -36 -51 -48 -43 -13 9 56 82 82 239 55 336 -11 42 -15 44 -49
20z m-187 -466 c133 -101 127 -297 -9 -323 -19 -3 -42 -3 -51 0 -14 6 -9 11
24 26 58 26 77 66 69 142 -3 32 -12 71 -20 87 -17 33 -73 84 -116 106 -17 9
-30 18 -30 20 0 10 103 -35 133 -58z m-213 14 c68 -26 116 -64 140 -111 24
-47 25 -69 6 -115 -16 -37 -68 -75 -101 -75 -18 1 -18 2 3 14 34 18 62 66 62
104 0 65 -46 120 -144 171 -66 35 -46 42 34 12z m-113 -46 c61 -36 64 -51 4
-20 -28 14 -77 32 -109 40 l-57 15 60 -5 c37 -4 75 -15 102 -30z m-95 -48 c58
-26 112 -68 129 -99 6 -11 -8 -1 -31 21 -44 43 -119 76 -203 90 l-52 9 52 1
c35 1 70 -7 105 -22z m-96 -56 c56 -26 88 -51 67 -51 -5 0 -42 18 -83 40 -87
46 -75 54 16 11z m154 -69 c12 -10 21 -26 19 -36 -3 -14 -10 -11 -38 18 -37
39 -23 52 19 18z m50 -136 c0 -6 -7 -1 -15 10 -8 10 -14 26 -14 34 0 16 28
-28 29 -44z"/>
</g>
</svg>
